<?xml version="1.0" encoding="UTF-8" standalone="no"?>
<!DOCTYPE svg PUBLIC "-//W3C//DTD SVG 1.1//EN" "http://www.w3.org/Graphics/SVG/1.1/DTD/svg11.dtd">
<svg width="100%" height="100%" viewBox="0 0 48 48" version="1.1" xmlns="http://www.w3.org/2000/svg" xmlns:xlink="http://www.w3.org/1999/xlink" xml:space="preserve" xmlns:serif="http://www.serif.com/" style="fill-rule:evenodd;clip-rule:evenodd;stroke-linejoin:round;stroke-miterlimit:2;">
    <g transform="matrix(1.363194,0,0,1.363194,-6.853463,-5.308672)">
        <path d="M14,6L28,6L35,13L35,34C35,35.7 33.7,37 32,37L14,37C12.3,37 11,35.7 11,34L11,9C11,7.3 12.3,6 14,6ZM17.405,18.073C16.819,18.073 16.305,18.586 16.305,19.173C16.305,19.76 16.819,20.274 17.405,20.274L24.741,20.274C25.328,20.274 25.842,19.76 25.842,19.173C25.842,18.586 25.328,18.073 24.741,18.073L17.405,18.073ZM27,8L27,13L32,13L27,8ZM17.405,21.741C16.819,21.741 16.305,22.254 16.305,22.841C16.305,23.428 16.819,23.941 17.405,23.941L21.807,23.941C22.394,23.941 22.907,23.428 22.907,22.841C22.907,22.254 22.394,21.741 21.807,21.741L17.405,21.741Z" style="fill:white;"/>
    </g>
</svg>
